<svg xmlns="http://www.w3.org/2000/svg" viewBox="0 0 360.01 78.85"><g id="Layer_2" data-name="Layer 2"><g id="Layer_1-2" data-name="Layer 1"><path d="M126.64,33.56V.47h14c7.38,0,12.15,4.73,12.15,11.06S148,22.45,140.63,22.45H133.4V33.56Zm6.76-17.11h7.23a4.84,4.84,0,0,0,5.15-5,4.85,4.85,0,0,0-5.15-5H133.4Z"/><path d="M162.28,12.34a8.14,8.14,0,0,1,9.12-3.26v6.05c-5.15-1.8-9.12.56-9.12,4.77V33.56H155.9V9.17h6.38Z"/><path d="M185.16,8.7c7.42,0,13.05,5.48,13.05,12.67S192.58,34,185.16,34s-13-5.49-13-12.67S177.74,8.7,185.16,8.7Zm0,19.52c3.69,0,6.43-2.93,6.43-6.85a6.44,6.44,0,1,0-12.86,0A6.51,6.51,0,0,0,185.16,28.22Z"/><path d="M199.44,14.8V9.17h4.91V2l6.38-2V9.17h6.34V14.8h-6.34v9.69c0,2.36,1.09,3.45,3.46,3.45h2.88v5.62h-2.88c-6.72,0-9.84-3.12-9.84-9.45V14.8Z"/><path d="M232.34,8.7c7.42,0,13,5.48,13,12.67S239.76,34,232.34,34s-13.05-5.49-13.05-12.67S224.92,8.7,232.34,8.7Zm0,19.52c3.68,0,6.43-2.93,6.43-6.85a6.44,6.44,0,1,0-12.86,0A6.51,6.51,0,0,0,232.34,28.22Z"/><path d="M138.74,44.06a12.33,12.33,0,0,1,11.72,7.75l-5.86,2a6.22,6.22,0,0,0-5.86-3.92,6.5,6.5,0,0,0-6.43,6.81,6.51,6.51,0,0,0,6.43,6.85,6.25,6.25,0,0,0,5.86-4l5.86,2a12.33,12.33,0,0,1-11.72,7.76c-7.42,0-13.05-5.49-13.05-12.67S131.32,44.06,138.74,44.06Z"/><path d="M166.25,44.06c7.42,0,13.05,5.48,13.05,12.67S173.67,69.4,166.25,69.4s-13-5.49-13-12.67S158.83,44.06,166.25,44.06Zm0,19.52c3.69,0,6.43-2.93,6.43-6.85a6.44,6.44,0,1,0-12.86,0A6.51,6.51,0,0,0,166.25,63.58Z"/><path d="M207.28,54.13V68.92H200.9V55.26a5.53,5.53,0,0,0-11.06,0V68.92h-6.38V44.53h6.38V47.7a9.42,9.42,0,0,1,7.61-3.64C203.31,44.06,207.28,48.31,207.28,54.13Z"/><path d="M217.16,61c.29,2.22,1.85,3.31,4.35,3.31,2.65,0,4.3-1.14,4.3-2.55,0-4.59-14.32-.29-14.32-10,0-4.39,4.3-7.7,10-7.7s9.69,2.79,10.4,7l-6.33,1.33c-.33-2.23-1.8-3.31-4.07-3.31-2,0-3.59.94-3.59,2.36,0,4.63,14.32.33,14.32,10.21,0,4.4-4.77,7.71-10.73,7.71s-10-2.79-10.73-7.05Z"/><path d="M235.69,44.53h6.38V58.62a5.06,5.06,0,0,0,10.12,0V44.53h6.38V58.62c0,6.43-4.82,10.78-11.44,10.78s-11.44-4.35-11.44-10.78Z"/><path d="M263.49,68.92v-35h6.38v35Z"/><path d="M273.08,50.16V44.53H278V37.35l6.38-2v9.17h6.34v5.63h-6.34v9.69c0,2.36,1.09,3.45,3.45,3.45h2.89v5.62h-2.89c-6.71,0-9.83-3.12-9.83-9.45V50.16Z"/><path d="M298.09,33.94a3.83,3.83,0,1,1,0,7.66,3.83,3.83,0,1,1,0-7.66Zm-3.22,35V44.53h6.39V68.92Z"/><path d="M330.19,54.13V68.92H323.8V55.26a5.22,5.22,0,0,0-5.53-5.39,5.28,5.28,0,0,0-5.53,5.39V68.92h-6.38V44.53h6.38V47.7a9.42,9.42,0,0,1,7.61-3.64C326.22,44.06,330.19,48.31,330.19,54.13Z"/><path d="M353.63,44.53H360V66.18c0,7.19-5.62,12.67-13,12.67a12.6,12.6,0,0,1-11.35-6.57l5.72-3A6.12,6.12,0,0,0,347,73a6.62,6.62,0,0,0,6.66-6.86v-.8a10.32,10.32,0,0,1-7.75,3.26c-6.67,0-11.72-5.34-11.72-12.29s5-12.29,11.72-12.29a10.32,10.32,0,0,1,7.75,3.26Zm0,11.82a6.43,6.43,0,1,0-12.86,0,6.43,6.43,0,1,0,12.86,0Z"/><path d="M79.34.42H26.13a26.12,26.12,0,0,0-26,24.19h0v.1C0,25.32,0,25.93,0,26.55s0,1.23.07,1.84V69.18L25.38,52.66l.75,0H79.34a26.13,26.13,0,0,0,0-52.26ZM52.73,38.66c-9.1,0-16.49-5.6-16.49-12.5s7.39-12.5,16.49-12.5,16.5,5.59,16.5,12.5S61.84,38.66,52.73,38.66Z"/></g></g></svg>