<svg xmlns="http://www.w3.org/2000/svg" viewBox="0 0 80.28 84.79"><defs><style>.cls-1{fill:none;stroke:#a2c1c4;stroke-miterlimit:10;}.cls-2{fill:#d6ff30;}</style></defs><g id="Layer_2" data-name="Layer 2"><g id="Layer_1-2" data-name="Layer 1"><path class="cls-1" d="M74.24,62.25H6A5.54,5.54,0,0,1,.5,56.71V6A5.54,5.54,0,0,1,6,.5h68.2A5.54,5.54,0,0,1,79.78,6V56.71A5.54,5.54,0,0,1,74.24,62.25Z"/><line class="cls-1" x1="79.78" y1="14.72" x2="0.5" y2="14.72"/><circle class="cls-2" cx="8.67" cy="7.76" r="3.09"/><circle class="cls-2" cx="18.67" cy="7.76" r="3.09"/><circle class="cls-2" cx="28.67" cy="7.76" r="3.09"/><polygon class="cls-2" points="76.3 72.69 59.51 72.88 47.81 84.79 48.15 46.01 76.3 72.69"/><rect class="cls-1" x="6.93" y="22.05" width="31.77" height="31.77" rx="5.19"/><line class="cls-1" x1="47.81" y1="23.05" x2="72.31" y2="23.05"/><line class="cls-1" x1="47.81" y1="31.65" x2="72.31" y2="31.65"/><line class="cls-1" x1="47.81" y1="40.25" x2="72.31" y2="40.25"/></g></g></svg>