<svg xmlns="http://www.w3.org/2000/svg" viewBox="0 0 91.99 79.05"><defs><style>.cls-1{fill:none;stroke:#a2c1c4;stroke-miterlimit:10;}.cls-2{fill:#d6ff30;}</style></defs><g id="Layer_2" data-name="Layer 2"><g id="Layer_1-2" data-name="Layer 1"><path class="cls-1" d="M46,39.42V75.06a3.34,3.34,0,0,0,3.18,3.49H88.31a3.34,3.34,0,0,0,3.18-3.49V43.2a3.34,3.34,0,0,0-3.18-3.49H63.43"/><path class="cls-1" d="M46,39.42V75.06a3.35,3.35,0,0,1-3.18,3.49H3.68A3.34,3.34,0,0,1,.5,75.06V43.2a3.34,3.34,0,0,1,3.18-3.49H28.56"/><path class="cls-1" d="M65.56,39.42H26.43a3.34,3.34,0,0,1-3.18-3.48V4.07A3.35,3.35,0,0,1,26.43.58H65.56a3.36,3.36,0,0,1,3.19,3.49V35.94A3.35,3.35,0,0,1,65.56,39.42Z"/><polygon class="cls-2" points="51.72 16.89 46.41 13.57 41.09 16.89 41.09 0 51.72 0 51.72 16.89"/><polygon class="cls-2" points="28.56 55.99 23.25 52.67 17.94 55.99 17.94 39.1 28.56 39.1 28.56 55.99"/><line class="cls-1" x1="4.4" y1="73.14" x2="17.94" y2="73.14"/><line class="cls-1" x1="49.97" y1="67.69" x2="57.42" y2="67.69"/><line class="cls-1" x1="49.97" y1="73.14" x2="63.5" y2="73.14"/><line class="cls-1" x1="27.56" y1="28.94" x2="35.01" y2="28.94"/><line class="cls-1" x1="27.56" y1="34.39" x2="41.09" y2="34.39"/><path class="cls-1" d="M46,46.85V75.06a3.34,3.34,0,0,0,3.18,3.49H88.31a3.34,3.34,0,0,0,3.18-3.49V43.2a3.34,3.34,0,0,0-3.18-3.49H63.43"/><polygon class="cls-2" points="74.13 55.99 68.81 52.67 63.5 55.99 63.5 39.1 74.13 39.1 74.13 55.99"/></g></g></svg>