<svg xmlns="http://www.w3.org/2000/svg" viewBox="0 0 85.27 84.14"><defs><style>.cls-1{fill:none;stroke:#a2c1c4;stroke-miterlimit:10;}.cls-2{fill:#d6ff30;}</style></defs><g id="Layer_2" data-name="Layer 2"><g id="Layer_1-2" data-name="Layer 1"><line class="cls-1" x1="55.66" y1="0.35" x2="70.9" y2="15.89"/><path class="cls-1" d="M31.74,49.08a.15.15,0,0,1,.15-.15H70.76V16l-15.24-.15V.5H11.44V22.38H33.19V41.27H11.44V83.64H70.76v-7.5"/><polyline class="cls-1" points="11.44 22.38 0.5 22.38 0.5 41.27 11.44 41.27"/><path class="cls-1" d="M70.76,76.14H81A1.92,1.92,0,0,0,83,74.22V49s0,0-.06,0L70.76,57.31"/><path class="cls-1" d="M70.76,57.31,82.86,49a0,0,0,0,0,0-.07H70.76"/><path class="cls-1" d="M70.76,48.93H32.24a.16.16,0,0,0-.09.28l25.2,17.33,13.41-9.23"/><path class="cls-1" d="M70.76,57.31,57.35,66.54,32,49.1a.15.15,0,0,0-.24.12v25a1.92,1.92,0,0,0,1.92,1.92h37.1"/><line class="cls-1" x1="3.95" y1="26.83" x2="15.03" y2="26.83"/><line class="cls-1" x1="3.95" y1="31.1" x2="11.03" y2="31.1"/><line class="cls-1" x1="35.56" y1="67.56" x2="46.64" y2="67.56"/><line class="cls-1" x1="35.56" y1="71.83" x2="42.64" y2="71.83"/><polygon class="cls-2" points="79.88 15.89 56.85 38.91 56.54 44.62 62.24 44.31 85.27 21.28 79.88 15.89"/></g></g></svg>