<?xml version="1.0" standalone="no"?>
<!DOCTYPE svg PUBLIC "-//W3C//DTD SVG 20010904//EN"
 "http://www.w3.org/TR/2001/REC-SVG-20010904/DTD/svg10.dtd">
<svg version="1.0" xmlns="http://www.w3.org/2000/svg"
 width="422.000000pt" height="422.000000pt" viewBox="0 0 422.000000 422.000000"
 preserveAspectRatio="xMidYMid meet">
<metadata>
Created by potrace 1.14, written by Peter Selinger 2001-2017
</metadata>
<g transform="translate(0.000000,422.000000) scale(0.100000,-0.100000)"
fill="#000000" stroke="none">
<path d="M977 3484 c-1 -1 -29 -5 -62 -8 -117 -12 -315 -76 -384 -126 -16 -11
-32 -20 -35 -20 -4 0 -30 -17 -59 -39 -198 -146 -336 -345 -403 -581 l-27 -95
-2 -938 c-1 -756 1 -937 11 -933 7 3 73 44 146 92 73 48 171 112 218 142 47
31 208 136 359 234 l274 179 1146 3 c630 1 1158 5 1174 9 15 4 38 9 52 11 14
3 52 13 83 22 31 10 63 18 69 20 27 5 146 68 215 113 179 116 306 275 402 501
13 33 37 116 51 185 14 64 13 291 -1 369 -68 373 -337 686 -694 806 -36 12
-73 24 -82 26 -38 9 -55 12 -98 20 -35 6 -2346 14 -2353 8z m1328 -555 c142
-34 267 -105 350 -197 188 -210 135 -486 -125 -657 -317 -207 -810 -131 -1008
156 -42 63 -64 133 -67 220 -3 62 1 87 22 140 78 194 288 333 538 355 39 4 71
8 73 9 8 7 150 -10 217 -26z"/>
</g>
</svg>
