<svg xmlns="http://www.w3.org/2000/svg" viewBox="0 0 60.32 84.14"><defs><style>.cls-1{fill:none;stroke:#a2c1c4;stroke-miterlimit:10;}.cls-2{fill:#d6ff30;}</style></defs><g id="Layer_2" data-name="Layer 2"><g id="Layer_1-2" data-name="Layer 1"><line class="cls-1" x1="44.72" y1="0.35" x2="59.96" y2="15.89"/><polyline class="cls-1" points="59.82 76.14 59.82 83.64 0.5 83.64 0.5 41.27 0.5 0.5 44.58 0.5 44.58 15.88 59.82 16.03 59.82 48.93 59.82 76.14"/><path class="cls-2" d="M45.15,36.35a15,15,0,1,0-26.37,9.74,18.43,18.43,0,0,1,4.24,12v1H37.31V58a19.49,19.49,0,0,1,4.54-12.21A15,15,0,0,0,45.15,36.35Z"/><line class="cls-1" x1="22.18" y1="65.43" x2="38.16" y2="65.43"/><line class="cls-1" x1="26.17" y1="70.83" x2="34.16" y2="70.83"/></g></g></svg>