<svg xmlns="http://www.w3.org/2000/svg" viewBox="0 0 83 83"><defs><style>.cls-1{fill:none;stroke:#a2c1c4;stroke-miterlimit:10;}.cls-2{fill:#d6ff30;}</style></defs><g id="Layer_2" data-name="Layer 2"><g id="Layer_1-2" data-name="Layer 1"><circle class="cls-1" cx="41.5" cy="41.34" r="32.06"/><circle class="cls-1" cx="41.5" cy="41.34" r="25.24"/><line class="cls-1" x1="41.5" y1="27.46" x2="41.5"/><line class="cls-1" x1="41.5" y1="83" x2="41.5" y2="55.54"/><line class="cls-1" x1="27.46" y1="41.5" y2="41.5"/><line class="cls-1" x1="83" y1="41.5" x2="55.54" y2="41.5"/><path class="cls-2" d="M41.78,32.45l2.58,5.24a.33.33,0,0,0,.24.17l5.77.84a.31.31,0,0,1,.18.53L46.36,43.3a.32.32,0,0,0-.08.28l1,5.75a.31.31,0,0,1-.45.33l-5.17-2.72a.28.28,0,0,0-.28,0l-5.17,2.72a.31.31,0,0,1-.45-.33l1-5.75a.32.32,0,0,0-.08-.28l-4.19-4.07a.31.31,0,0,1,.18-.53l5.77-.84a.33.33,0,0,0,.24-.17l2.58-5.24A.31.31,0,0,1,41.78,32.45Z"/></g></g></svg>