<svg xmlns="http://www.w3.org/2000/svg" viewBox="0 0 76.1 80.25"><defs><style>.cls-1{fill:none;stroke:#a2c1c4;stroke-miterlimit:10;}.cls-2{fill:#d6ff30;}</style></defs><g id="Layer_2" data-name="Layer 2"><g id="Layer_1-2" data-name="Layer 1"><line class="cls-1" x1="75.6" y1="12.41" x2="75.6" y2="66.8"/><line class="cls-1" x1="61.2" y1="66.8" x2="61.2" y2="12.41"/><rect class="cls-1" x="0.5" y="7.51" width="53.67" height="72.24"/><path class="cls-1" d="M9.85,13.58A6.54,6.54,0,1,1,16.38,7"/><path class="cls-1" d="M26.35,13.58A6.54,6.54,0,1,1,32.88,7"/><path class="cls-1" d="M42.85,13.58A6.54,6.54,0,1,1,49.38,7"/><line class="cls-1" x1="7.77" y1="24.04" x2="22.3" y2="38.57"/><line class="cls-1" x1="7.77" y1="38.57" x2="22.3" y2="24.04"/><circle class="cls-1" cx="37.16" cy="65.85" r="7.27"/><path class="cls-1" d="M15,74.35V59.45A11.07,11.07,0,0,1,26.1,48.38h0A11.07,11.07,0,0,0,37.16,37.31v-15"/><path class="cls-2" d="M68.09,5.88h.62A7.31,7.31,0,0,1,76,13.19v3.54a0,0,0,0,1,0,0H60.78a0,0,0,0,1,0,0V13.19a7.31,7.31,0,0,1,7.31-7.31Z"/><polygon class="cls-2" points="68.4 79.75 68.4 79.75 60.78 66.8 76.02 66.8 68.4 79.75"/></g></g></svg>